#!OML:ASF E:\Steps\Project 1\Capture day 1\Session 2\Subject.ASF
:FULLY-SPECIFIED
:DEGREES
98
root 16.2301 16.3475 21.17 -155.307 -0.574487 177.37
lowerback -29.7287 -2.18305 -7.71806
upperback -1.02296 -0.878361 -0.051714
thorax 14.596 -1.17039 3.72096
lowerneck -5.42362 -1.2564 -0.959166
upperneck 5.57313 -1.93899 4.01831
head 2.78327 -0.878921 1.38532
rclavicle -4.09993e-015 -9.93923e-016
rhumerus -36.6662 -18.9123 -79.4073
rradius 31.4383
rwrist -6.45697
rhand -16.3619 -77.8982
rfingers 7.12502
rthumb 9.85098 -252.352
lclavicle -4.09993e-015 -9.93923e-016
lhumerus -30.8652 7.08347 81.0515
lradius 21.3746
lwrist -3.6678
lhand -22.3951 -13.2869
lfingers 7.12502
lthumb 4.02728 16.6548
rfemur -22.1956 7.8407 18.4232
rtibia 8.67052
rfoot -18.9157 -3.55115
rtoes -18.1347
lfemur -22.6677 -8.4545 -21.9011
ltibia 8.17033
lfoot -6.51089 -3.00438
ltoes -31.2051
99
root 16.2342 16.348 21.1727 -155.268 -0.550118 177.416
lowerback -29.7567 -2.14831 -7.66805
upperback -1.03076 -0.848939 -0.0576515
thorax 14.596 -1.15447 3.69858
lowerneck -5.43246 -1.21176 -1.02294
upperneck 5.49235 -1.87679 4.10587
head 2.75848 -0.847146 1.42742
rclavicle 1.61016e-014 -2.78299e-014
rhumerus -36.6491 -19.0028 -79.3873
rradius 31.4017
rwrist -6.36485
rhand -16.429 -77.9855
rfingers 7.12502
rthumb 9.78625 -252.262
lclavicle 1.61016e-014 -2.78299e-014
lhumerus -30.9212 7.03654 81.0299
lradius 21.4863
lwrist -3.66329
lhand -22.3057 -12.9823
lfingers 7.12502
lthumb 4.11355 16.9577
rfemur -22.293 7.8528 18.4872
rtibia 8.73262
rfoot -18.9889 -3.46605
rtoes -17.652
lfemur -22.7537 -8.26711 -21.8432
ltibia 8.20818
lfoot -6.49166 -3.10884
ltoes -30.3584
100
root 16.2359 16.3509 21.1716 -155.29 -0.503251 177.318
lowerback -29.8419 -2.16893 -7.74211
upperback -0.952697 -0.825583 -0.103863
thorax 14.7222 -1.15089 3.69585
lowerneck -5.59045 -1.25494 -0.878755
upperneck 5.66057 -1.94563 3.99237
head 2.84272 -0.878751 1.36264
rclavicle -7.1811e-015 -3.97569e-015
rhumerus -36.594 -18.9208 -79.487
rradius 31.4661
rwrist -6.4853
rhand -16.5174 -78.1639
rfingers 7.12502
rthumb 9.70094 -252.08
lclavicle -7.1811e-015 -3.97569e-015
lhumerus -30.8677 7.0371 80.9845
lradius 21.5297
lwrist -3.70461
lhand -22.2314 -12.8551
lfingers 7.12502
lthumb 4.18537 17.0835
rfemur -22.2969 7.68402 18.3735
rtibia 8.75122
rfoot -19.0045 -3.35421
rtoes -17.6217
lfemur -22.6963 -8.32655 -21.9293
ltibia 8.14054
lfoot -6.45395 -3.04291
ltoes -29.7699
101
root 16.2381 16.35 21.1774 -155.236 -0.705295 177.402
lowerback -29.8912 -2.19728 -7.59003
upperback -0.913943 -0.903767 -0.0901975
thorax 14.8004 -1.1764 3.59701
lowerneck -5.72454 -1.25256 -0.724732
upperneck 5.89248 -1.95497 3.8444
head 2.94192 -0.88163 1.28756
rclavicle -4.17448e-015 -4.57205e-015
rhumerus -36.5233 -18.8256 -79.5991
rradius 31.5346
rwrist -6.67072
rhand -16.6116 -78.3841
rfingers 7.12502
rthumb 9.61007 -251.855
lclavicle -4.17448e-015 -4.57205e-015
lhumerus -30.7481 7.05197 80.9418
lradius 21.4531
lwrist -3.76822
lhand -22.196 -12.9654
lfingers 7.12502
lthumb 4.21954 16.9725
rfemur -22.3175 7.31069 18.5974
rtibia 8.72274
rfoot -18.9909 -3.17084
rtoes -17.9529
lfemur -22.8671 -8.24973 -21.8213
ltibia 8.34615
lfoot -6.52415 -3.29598
ltoes -29.9653
102
root 16.2423 16.3513 21.1824 -155.178 -0.843907 177.49
lowerback -29.921 -2.18383 -7.48394
upperback -0.923808 -0.924174 -0.0659208
thorax 14.8056 -1.17902 3.55769
lowerneck -5.70037 -1.1976 -0.787589
upperneck 5.97402 -1.88765 3.92588
head 2.96576 -0.847416 1.32886
rclavicle 4.22417e-015 1.98785e-016
rhumerus -36.5395 -18.8328 -79.5953
rradius 31.6215
rwrist -6.68219
rhand -16.6731 -78.6653
rfingers 7.12502
rthumb 9.55076 -251.571
lclavicle 4.22417e-015 1.98785e-016
lhumerus -30.6972 7.10475 80.9318
lradius 21.3514
lwrist -3.95846
lhand -22.2921 -13.1059
lfingers 7.12502
lthumb 4.12667 16.8339
rfemur -22.3765 7.46644 18.7052
rtibia 8.72688
rfoot -18.9923 -3.40921
rtoes -18.345
lfemur -23.0863 -8.18035 -21.6872
ltibia 8.61021
lfoot -6.64575 -3.44948
ltoes -30.5515
103
root 16.2474 16.3522 21.1828 -155.15 -0.807056 177.515
lowerback -29.9561 -2.16213 -7.50888
upperback -0.946254 -0.894847 -0.0255654
thorax 14.7928 -1.16956 3.62627
lowerneck -5.62817 -1.12963 -0.930097
upperneck 5.99901 -1.79539 4.03908
head 2.96218 -0.80231 1.3956
rclavicle -5.39203e-015 2.82274e-014
rhumerus -36.585 -18.7542 -79.5633
rradius 31.7341
rwrist -6.63821
rhand -16.7114 -79.1224
rfingers 7.12502
rthumb 9.51381 -251.112
lclavicle -5.39203e-015 2.82274e-014
lhumerus -30.7376 7.20014 80.9686
lradius 21.3373
lwrist -4.14279
lhand -22.5336 -12.8924
lfingers 7.12502
lthumb 3.89346 17.0518
rfemur -22.4532 7.78418 18.6778
rtibia 8.7721
rfoot -18.8774 -3.68906
rtoes -18.6882
lfemur -23.111 -8.22671 -21.602
ltibia 8.55214
lfoot -6.65549 -3.34742
ltoes -31.4833
104
root 16.2482 16.3538 21.181 -155.064 -0.673816 177.322
lowerback -30.0543 -2.16512 -7.70461
upperback -0.973386 -0.828897 -0.0701519
thorax 14.7953 -1.15616 3.7062
lowerneck -5.56455 -1.0188 -1.03537
upperneck 6.02423 -1.64037 4.06108
head 2.9561 -0.727414 1.42848
rclavicle -2.23633e-016 1.47101e-014
rhumerus -36.5959 -18.8064 -79.499
rradius 31.7099
rwrist -6.54968
rhand -16.7569 -79.4744
rfingers 7.12502
rthumb 9.46993 -250.758
lclavicle -2.23633e-016 1.47101e-014
lhumerus -30.8184 7.19467 80.9927
lradius 21.445
lwrist -4.10777
lhand -22.5987 -12.765
lfingers 7.12502
lthumb 3.83059 17.1803
rfemur -22.5862 7.57487 18.4462
rtibia 8.8135
rfoot -18.7599 -3.47012
rtoes -18.7732
lfemur -23.1804 -8.24169 -21.8409
ltibia 8.54025
lfoot -6.56882 -3.33644
ltoes -31.0601
105
root 16.256 16.3509 21.1767 -155.219 -0.69577 177.473
lowerback -29.9463 -2.09924 -7.59617
upperback -0.956384 -0.784382 -0.0360376
thorax 14.7629 -1.1259 3.70644
lowerneck -5.5486 -0.975784 -1.00279
upperneck 6.14634 -1.58614 3.99173
head 2.99145 -0.701665 1.40304
rclavicle -2.98177e-016 -2.08724e-014
rhumerus -36.648 -18.864 -79.4488
rradius 31.6641
rwrist -6.46142
rhand -16.7859 -79.6675
rfingers 7.12502
rthumb 9.44191 -250.564
lclavicle -2.98177e-016 -2.08724e-014
lhumerus -30.8846 7.16445 80.9784
lradius 21.5133
lwrist -4.04433
lhand -22.5407 -12.8177
lfingers 7.12502
lthumb 3.88661 17.1266
rfemur -22.3754 7.59858 18.6734
rtibia 8.73605
rfoot -18.7386 -3.46592
rtoes -18.9378
lfemur -23.0039 -8.12732 -21.6322
ltibia 8.51851
lfoot -6.38093 -3.36062
ltoes -29.6468
106
root 16.2625 16.3504 21.1781 -155.272 -0.66583 177.387
lowerback -29.908 -2.09187 -7.72626
upperback -0.931688 -0.724647 -0.062469
thorax 14.7663 -1.10663 3.77263
lowerneck -5.70729 -1.04435 -0.699512
upperneck 6.51355 -1.69745 3.68666
head 3.14099 -0.756478 1.2462
rclavicle 2.68359e-015 -2.64384e-014
rhumerus -36.6197 -18.7584 -79.5171
rradius 31.6889
rwrist -6.64043
rhand -16.8416 -79.8885
rfingers 7.12502
rthumb 9.3882 -250.341
lclavicle 2.68359e-015 -2.64384e-014
lhumerus -30.8103 7.1441 80.9935
lradius 21.4585
lwrist -4.05027
lhand -22.5479 -12.7101
lfingers 7.12502
lthumb 3.8797 17.2344
rfemur -22.3229 7.5636 18.6072
rtibia 8.7147
rfoot -18.8444 -3.491
rtoes -19.1257
lfemur -22.9416 -7.99579 -21.7275
ltibia 8.4799
lfoot -6.33554 -3.46903
ltoes -29.7985
107
root 16.2667 16.349 21.1863 -155.34 -0.901914 177.586
lowerback -29.7694 -2.07859 -7.506
upperback -0.894745 -0.788249 0.0156304
thorax 14.758 -1.11648 3.71848
lowerneck -5.83667 -1.05134 -0.545577
upperneck 6.72041 -1.71223 3.48261
head 3.23177 -0.764267 1.15216
rclavicle -9.44227e-016 -2.5842e-015
rhumerus -36.4596 -18.6841 -79.6044
rradius 31.6564
rwrist -6.94544
rhand -16.9402 -80.0232
rfingers 7.12502
rthumb 9.29302 -250.202
lclavicle -9.44227e-016 -2.5842e-015
lhumerus -30.6579 7.06856 81.067
lradius 21.3947
lwrist -4.01357
lhand -22.6056 -12.7293
lfingers 7.12502
lthumb 3.82395 17.2161
rfemur -22.2338 7.2224 19.0025
rtibia 8.70007
rfoot -18.962 -3.26151
rtoes -19.0339
lfemur -22.9808 -7.78907 -21.4924
ltibia 8.58433
lfoot -6.47532 -3.79365
ltoes -31.3971
108
root 16.2715 16.353 21.1875 -155.198 -0.856642 177.271
lowerback -30.0206 -2.19727 -7.82974
upperback -0.8374 -0.806285 -0.0223114
thorax 14.9394 -1.15437 3.83832
lowerneck -5.80913 -0.884205 -0.839422
upperneck 6.56213 -1.46638 3.65842
head 3.17261 -0.643366 1.27273
rclavicle 1.2424e-014 -3.97569e-015
rhumerus -36.316 -18.4897 -79.7035
rradius 31.6793
rwrist -7.25081
rhand -17.0344 -80.1675
rfingers 7.12502
rthumb 9.2022 -250.053
lclavicle 1.2424e-014 -3.97569e-015
lhumerus -30.5379 7.09827 81.1274
lradius 21.3991
lwrist -3.94232
lhand -22.6573 -12.6721
lfingers 7.12502
lthumb 3.77403 17.2742
rfemur -22.4352 7.00918 18.6255
rtibia 8.77056
rfoot -18.9114 -3.16965
rtoes -19.0177
lfemur -23.1327 -7.81709 -21.854
ltibia 8.57056
lfoot -6.49748 -3.8939
ltoes -32.1936
109
root 16.2679 16.3495 21.1974 -155.27 -1.22897 177.555
lowerback -29.901 -2.17417 -7.34877
upperback -0.811896 -0.946682 0.0565064
thorax 14.9358 -1.18003 3.61302
lowerneck -5.81373 -0.772837 -1.02181
upperneck 6.62919 -1.31327 3.77173
head 3.19638 -0.567759 1.35014
rclavicle -4.37326e-015 1.53064e-014
rhumerus -36.2581 -18.3144 -79.8185
rradius 31.782
rwrist -7.39854
rhand -17.0749 -80.6229
rfingers 7.12502
rthumb 9.16308 -249.596
lclavicle -4.37326e-015 1.53064e-014
lhumerus -30.4916 7.22138 81.1083
lradius 21.3978
lwrist -3.964
lhand -22.5462 -12.5887
lfingers 7.12502
lthumb 3.88129 17.3557
rfemur -22.2828 6.81588 19.074
rtibia 8.70816
rfoot -18.7842 -3.13803
rtoes -18.6183
lfemur -23.1292 -7.92302 -21.4952
ltibia 8.6314
lfoot -6.41236 -4.02864
ltoes -31.6533
110
root 16.2782 16.3493 21.1962 -155.349 -1.11469 177.569
lowerback -29.9089 -2.13865 -7.43095
upperback -0.770748 -0.862931 0.0476122
thorax 14.9779 -1.14872 3.68182
lowerneck -5.80059 -0.721409 -0.980648
upperneck 6.90988 -1.26937 3.80863
head 3.28936 -0.544891 1.35911
rclavicle -1.20762e-014 -7.7526e-015
rhumerus -36.2348 -18.3242 -79.9017
rradius 31.8172
rwrist -7.35183
rhand -17.0938 -81.012
rfingers 7.12502
rthumb 9.1448 -249.206
lclavicle -1.20762e-014 -7.7526e-015
lhumerus -30.4676 7.37694 81.0197
lradius 21.3185
lwrist -4.16983
lhand -22.2783 -12.9363
lfingers 7.12502
lthumb 4.14 17.0032
rfemur -22.2458 7.2126 19.0178
rtibia 8.72787
rfoot -18.7069 -3.38709
rtoes -18.2799
lfemur -23.1091 -7.71804 -21.446
ltibia 8.72383
lfoot -6.40536 -4.11209
ltoes -30.5854
111
root 16.2825 16.3507 21.2021 -155.328 -1.16862 177.505
lowerback -29.883 -2.17066 -7.50235
upperback -0.779428 -0.881248 0.0270317
thorax 14.9573 -1.16072 3.69062
lowerneck -5.72639 -0.603917 -0.89357
upperneck 7.22762 -1.13881 3.7801
head 3.37986 -0.481283 1.34249
rclavicle -2.73329e-016 -2.18663e-014
rhumerus -36.304 -18.3468 -79.9042
rradius 31.8932
rwrist -7.09037
rhand -17.1103 -81.2102
rfingers 7.12502
rthumb 9.12888 -249.007
lclavicle -2.73329e-016 -2.18663e-014
lhumerus -30.4552 7.56122 80.916
lradius 21.2757
lwrist -4.38685
lhand -22.0532 -13.3948
lfingers 7.12502
lthumb 4.3574 16.5404
rfemur -22.309 7.09683 18.9955
rtibia 8.76802
rfoot -18.7456 -3.41494
rtoes -18.7857
lfemur -23.28 -7.47319 -21.5369
ltibia 8.96515
lfoot -6.4786 -4.47896
ltoes -30.2172
